<svg width="19" height="18" viewBox="0 0 19 18" fill="none" xmlns="http://www.w3.org/2000/svg">
  <path d="M7.69162 0.996396C8.31077 -0.332278 10.2 -0.332279 10.8191 0.996395L12.258 4.08423C12.5094 4.62373 13.0212 4.99554 13.612 5.06793L16.9933 5.4822C18.4483 5.66046 19.0321 7.4572 17.9597 8.45662L15.4677 10.7793C15.0323 11.1851 14.8368 11.7867 14.9505 12.3709L15.6014 15.7148C15.8815 17.1537 14.3531 18.2641 13.0712 17.5531L10.0922 15.9008C9.57165 15.6121 8.93909 15.6121 8.41858 15.9008L5.43952 17.5531C4.15764 18.2641 2.62925 17.1537 2.90932 15.7148L3.56022 12.3709C3.67394 11.7867 3.47847 11.1851 3.04306 10.7793L0.550996 8.45662C-0.521322 7.4572 0.062474 5.66046 1.51744 5.4822L4.89879 5.06793C5.48958 4.99554 6.00133 4.62373 6.25274 4.08423L7.69162 0.996396Z" fill="#FFB547" />
</svg>